<svg xmlns="http://www.w3.org/2000/svg" height="48" viewBox="0 96 960 960" width="48">
  <defs>
    <linearGradient id="grad" x1="0%" y1="0%" x2="100%" y2="100%">
      <stop offset="0%" style="stop-color:#d5ac61;"/>
      <stop offset="100%" style="stop-color:#fcda9b;"/>
    </linearGradient>
  </defs>
  <path d="M694 935 553 794l42-42 99 98 184-183 42 43-226 225Zm-154 40q-112 0-186-78.5T280 709v-35q-85-11-142.5-75.5T80 446V216h120v-40h60v140h-60v-40h-60v170q0 71 49.5 120.5T310 616q71 0 120.5-49.5T480 446V276h-60v40h-60V176h60v40h120v230q0 88-57.5 152.5T340 674v35q0 85 56.5 145.5T540 915v60Z" fill="url(#grad)"/></svg>