<svg width="1446" height="230" viewBox="0 0 1446 230" fill="none" xmlns="http://www.w3.org/2000/svg">
<path d="M1445.67 11.18C1445.67 17.52 1440.69 22.5 1434.22 22.5C1427.75 22.5 1422.7 17.52 1422.7 11.18C1422.7 4.83999 1427.81 0 1434.22 0C1440.63 0 1445.67 4.97999 1445.67 11.18ZM1425.56 11.18C1425.56 16.16 1429.24 20.11 1434.29 20.11C1439.34 20.11 1442.81 16.16 1442.81 11.25C1442.81 6.34 1439.2 2.25 1434.22 2.25C1429.24 2.25 1425.56 6.26999 1425.56 11.18ZM1432.45 17.04H1429.86V5.86002C1430.88 5.66002 1432.32 5.51999 1434.16 5.51999C1436.27 5.51999 1437.23 5.86 1438.05 6.34C1438.66 6.82 1439.14 7.70002 1439.14 8.80002C1439.14 10.03 1438.19 10.98 1436.82 11.39V11.53C1437.91 11.94 1438.52 12.76 1438.87 14.26C1439.21 15.96 1439.42 16.65 1439.69 17.06H1436.89C1436.55 16.65 1436.34 15.63 1436 14.33C1435.79 13.1 1435.11 12.56 1433.68 12.56H1432.45V17.06V17.04ZM1432.52 10.7H1433.75C1435.18 10.7 1436.34 10.22 1436.34 9.06C1436.34 8.04 1435.59 7.36002 1433.95 7.36002C1433.27 7.36002 1432.79 7.43 1432.52 7.5V10.7Z" fill="#031347"/>
<path d="M781.63 60.52C767.51 48.11 747.95 41.91 722.97 41.91C706.19 41.91 691.7 44.9 679.47 50.89C667.23 56.89 657.85 65.26 651.35 76.04C644.85 86.82 641.59 99.31 641.59 113.52C641.59 135.6 648.61 152.88 662.65 165.37C676.67 177.86 696.18 184.11 721.17 184.11C746.16 184.11 766.02 177.65 780.73 164.74C795.46 151.81 802.81 134.41 802.81 112.49C802.81 90.5701 795.75 72.92 781.63 60.51V60.52ZM752.36 143.94C745.09 151.23 734.96 154.87 721.94 154.87C708.92 154.87 698.88 151.23 691.77 143.94C684.67 136.67 681.12 126.37 681.12 113.02C681.12 99.67 684.71 89.56 691.92 82.21C699.11 74.86 709.2 71.18 722.21 71.18C735.22 71.18 745.52 74.82 752.63 82.09C759.73 89.36 763.29 99.68 763.29 113.03C763.29 126.38 759.63 136.68 752.36 143.95V143.94Z" fill="#031347"/>
<path d="M1202.59 60C1189.51 47.95 1170.98 41.91 1147.02 41.91C1131.27 41.91 1117.54 45.02 1105.82 51.27C1094.1 57.52 1085.12 66.17 1078.87 77.2C1072.6 88.25 1069.49 100.79 1069.49 114.83C1069.49 136.72 1076.22 153.75 1089.65 165.91C1103.08 178.07 1121.95 184.13 1146.24 184.13C1167.63 184.13 1184.45 180.37 1196.69 172.85C1208.91 165.31 1216.83 153.76 1220.42 138.19H1184.74C1179.96 150.35 1167.55 156.41 1147.53 156.41C1139.3 156.41 1132.07 154.97 1125.82 152.04C1119.57 149.14 1114.71 145.13 1111.2 139.99C1107.69 134.85 1105.85 128.94 1105.68 122.27H1222.21V110.72C1222.21 88.99 1215.67 72.09 1202.57 60.02L1202.59 60ZM1106.72 98.9C1107.58 90.33 1111.71 83.23 1119.17 77.59C1126.61 71.95 1135.63 69.11 1146.25 69.11C1158.74 69.11 1168.5 71.72 1175.52 76.94C1182.54 82.16 1186.22 89.47 1186.55 98.9H1106.72Z" fill="#031347"/>
<path d="M436.22 83.24C443.22 83.24 448.9 88.92 448.9 95.92V180.01H410.65V83.23H436.22V83.24Z" fill="#031347"/>
<path d="M1041.52 55.13C1032.95 46.31 1020.73 41.91 1004.81 41.91C993.51 41.91 983.42 44.08 974.52 48.45C965.62 52.82 957.58 59.46 950.39 68.34C950.36 68.27 950.33 68.23 950.3 68.16C948.2 63.39 945.44 59.2 941.93 55.65C933.2 46.84 920.68 42.43 904.35 42.43C888.02 42.43 865.51 51.11 856.52 66.96H830.1C823.09 66.96 817.42 72.64 817.42 79.64V180.54H855.67V107.62C855.67 98.8901 858.83 91.2 865.15 84.52C870.67 78.61 877 74.93 884.16 73.45C886.63 72.97 889.12 72.71 891.61 72.71C907.71 72.71 916.75 83.9901 916.75 100.18V180.53H955V104.8C955 100.85 955.86 97.0501 957.57 93.3701C959.28 89.6901 961.58 86.48 964.5 83.74C972.36 76.39 981.17 72.71 990.93 72.71C1007.02 72.71 1016.1 83.9901 1016.1 100.18V180.53H1054.33V92.97C1054.33 76.55 1050.07 63.93 1041.5 55.12L1041.52 55.13Z" fill="#031347"/>
<path d="M374.21 55.13C364.88 46.31 351.49 41.91 334.04 41.91C316.59 41.91 292.19 51.02 282.71 66.96H253.8C246.79 66.96 241.12 72.64 241.12 79.64V121.13C241.12 121.3 241.11 121.45 241.1 121.62V180.02H279.35V163.73H279.37V106.78C279.46 98.35 283.04 90.76 290.13 84C294.07 80.24 298.74 77.34 304.13 75.27C309.52 73.22 314.95 72.2 320.43 72.2C342.15 72.2 349.95 83.24 349.95 100.42V180.02H388.2V92.9901C388.2 76.5701 383.54 63.95 374.21 55.13Z" fill="#031347"/>
<path d="M621.54 74.64C615.9 64.11 608.11 56.03 598.18 50.36C588.26 44.72 576.87 41.9 564.04 41.9C552.22 41.9 541.56 44.03 532.07 48.31C522.61 52.57 514.9 58.79 508.92 66.95H484.04C477.03 66.95 471.36 72.63 471.36 79.63V229.81H509.61V163.72V162.29C521.76 176.83 538.62 184.1 560.18 184.1C574.39 184.1 586.75 180.99 597.28 174.74C607.81 168.49 615.89 159.93 621.53 149.06C627.17 138.2 630.01 125.75 630.01 111.71C630.01 97.67 627.17 85.14 621.53 74.63L621.54 74.64ZM579.95 143.94C572.93 151.04 562.76 154.59 549.41 154.59C536.92 154.59 527.16 151 520.14 143.81C514.03 137.4 510.53 129.72 509.62 120.82V104.95C509.99 101.65 510.79 98.43 512.05 95.3C513.86 90.85 516.46 86.9 519.88 83.47C523.81 79.54 528.45 76.55 533.75 74.49C539.03 72.44 544.7 71.42 550.69 71.42C563.16 71.42 572.92 75.01 579.94 82.2C586.96 89.39 590.47 99.5001 590.47 112.49C590.47 126.36 586.96 136.83 579.94 143.93L579.95 143.94Z" fill="#031347"/>
<path d="M1370.83 0C1363.82 0 1358.15 5.67999 1358.15 12.68V63.72C1345.99 49.18 1329.15 41.91 1307.57 41.91C1293.36 41.91 1281.02 45.02 1270.49 51.27C1259.96 57.52 1251.88 66.08 1246.24 76.95C1240.58 87.81 1237.76 100.26 1237.76 114.3C1237.76 128.34 1240.58 140.87 1246.24 151.4C1251.88 161.91 1259.67 170.01 1269.6 175.65C1279.52 181.29 1290.91 184.11 1303.74 184.11C1315.54 184.11 1326.2 181.98 1335.7 177.7C1345.21 173.42 1352.94 167.17 1358.93 158.96V180.02H1396.41V0H1370.84H1370.83ZM1358.4 116.87C1358.4 121.65 1357.5 126.29 1355.7 130.72C1353.9 135.19 1351.29 139.12 1347.89 142.55C1343.94 146.48 1339.32 149.47 1334.02 151.53C1328.71 153.58 1323.07 154.6 1317.08 154.6C1304.59 154.6 1294.83 151.01 1287.81 143.82C1280.79 136.63 1277.28 126.54 1277.28 113.53C1277.28 99.68 1280.79 89.19 1287.81 82.09C1294.83 74.99 1305.02 71.44 1318.37 71.44C1331.03 71.44 1340.79 75.03 1347.62 82.22C1351.05 85.81 1353.7 90.01 1355.58 94.8C1357.46 99.61 1358.4 104.64 1358.4 109.95V116.89V116.87Z" fill="#031347"/>
<path d="M448.9 58.3H410.65V70.77H448.9V58.3Z" fill="#031347"/>
<path d="M54.85 53.5C24.56 53.5 0 78.06 0 108.35V180.02C41.98 180.02 76.01 145.99 76.01 104.01V53.5H54.85Z" fill="#031347"/>
<path d="M88.5898 28.01V104.02C88.5898 146 122.62 180.03 164.6 180.03V82.87C164.6 52.58 140.04 28.02 109.75 28.02H88.5898V28.01Z" fill="#031347"/>
<path d="M76 28.01H38V40.76H76V28.01Z" fill="#031347"/>
</svg>
